PathFileType	4	(X/Y/Z)	C:/Users/beibeiliu/ov580/test_trc\sequence.12_training_dense_left.trc
DataRate	CameraRate	NumFrames	NumMarkers	Units	OrigDataRate	OrigDataStartFrame	OrigNumFrames
120	120	22	19	mm	120	30	89
Frame#	Time	ThumbCMC			ThumbMCP			ThumbIP			ThumbTip			IndexMCP			IndexPIP			IndexTip			MiddleMCP			MiddlePIP			MiddleTip			RingMCP			RingPIP			RingTip			PinkyMCP			PinkyPIP			PinkyTip			BackHand1			BackHand2			BackHand3	
		X0	Y0	Z0	X1	Y1	Z1	X2	Y2	Z2	X3	Y3	Z3	X4	Y4	Z4	X5	Y5	Z5	X6	Y6	Z6	X7	Y7	Z7	X8	Y8	Z8	X9	Y9	Z9	X10	Y10	Z10	X11	Y11	Z11	X12	Y12	Z12	X13	Y13	Z13	X14	Y14	Z14	X15	Y15	Z15	X16	Y16	Z16	X17	Y17	Z17	X18	Y18	Z18	
29	0.241667	-168.76	57.9313	38.1964	-152.757	36.2011	24.71	-138.105	21.356	12.0368	-135.887	1.58938	-1.18456	-169.619	36.6835	-24.3007	-156.052	10.2765	-23.9497	-154.714	0.623441	6.41629	-194.356	35.0546	-34.8935	-187.773	22.3435	-54.7705	-181.961	7.16606	-76.3889	-211.846	32.4177	-26.2076	-212.88	26.2208	-47.0741	-217.152	21.4664	-64.2886	-226.332	27.4416	-8.63007	-235.829	23.8529	-25.8848	-242.995	24.6791	-41.4476	-215.071	53.2605	14.6916	-219.686	62.4602	35.74	-196.772	70.6352	21.427	
30	0.25	-186.147	60.8213	35.513	-157.039	50.734	27.4435	-145.585	36.3956	19.1528	-133.943	17.2528	7.55837	-167.84	32.6236	-19.9873	-152.604	13.0416	-14.52	-148.719	8.37158	18.834	-194.305	17.5867	-23.222	-182.101	1.90515	-41.5802	-171.295	-13.2359	-55.1393	-209.238	7.69978	-18.2162	-205.527	-5.57384	-34.9999	-199.44	-11.2622	-52.396	-222.297	-0.254936	0.430761	-223.866	-9.33583	-11.1717	-232.055	-15.1889	-30.3681	-227.445	31.5002	15.6535	-234.92	45.1536	38.6159	-215.6	58.0682	20.0674	
31	0.258333	-206.56	61.9251	37.3751	-174.273	64.3155	30.7776	-158.16	54.9675	22.3832	-136.065	45.2666	14.3874	-173.353	30.6805	-13.1321	-148.947	27.3137	-4.94791	-144.58	30.3385	25.5682	-184.707	8.37063	-17.479	-166.27	-1.82321	-28.346	-147.771	-12.6185	-40.9073	-196.917	-7.42774	-3.5236	-184.999	-15.4632	-17.4165	-174.426	-25.7664	-34.0254	-207.473	-16.4966	15.4494	-202.111	-29.6208	2.26658	-202.504	-36.3316	-9.57977	-228.062	14.1624	21.6444	-241.7	26.9979	41.7838	-226.224	45.4146	20.0992	
32	0.266667	-220.166	58.613	37.6632	-194.582	72.1569	32.9065	-171.978	74.7637	24.961	-150.75	68.4323	19.1557	-179.232	43.1115	-7.3033	-151.021	46.7922	3.28224	-151.092	52.1884	32.2968	-176.788	14.0833	-6.70014	-154.596	10.9446	-17.7386	-130.767	9.73755	-26.5058	-180.521	-0.955426	2.699	-164.316	-7.87521	-6.71799	-148.215	-12.7323	-18.8822	-186.056	-16.6127	23.8167	-174.905	-22.7363	11.1238	-169.272	-35.8095	-0.57279	-218.473	4.17035	25.713	-238.361	12.2399	44.4622	-230.094	28.7246	25.4896	
33	0.275	-227.096	57.2514	38.4213	-205.18	78.4269	32.588	-181.933	87.1252	23.751	-164.142	89.5707	21.6148	-175.842	51.8032	-2.73016	-153.309	66.5365	7.74834	-159.97	72.7776	36.407	-164.646	30.3498	-5.36991	-143.945	33.6608	-13.1422	-122.309	39.7387	-20.2122	-162.439	13.3186	5.73264	-145.315	12.6145	-1.97832	-125.875	12.748	-14.079	-162.964	-5.33635	26.5204	-150.517	-7.15258	17.1888	-142.998	-19.4849	10.0225	-203.946	7.77737	27.017	-222.226	4.72282	42.5941	-223.01	23.1934	24.2561	
34	0.283333	-223.133	52.2693	40.3192	-211.158	81.1604	35.0594	-192.74	92.9793	27.0988	-171.597	101.1	21.8261	-175.756	64.1346	-2.19265	-157.028	84.8126	12.7347	-163.884	86.5825	36.7381	-156.584	45.491	-5.87225	-135.5	55.4679	-13.2289	-114.597	69.0913	-20.7295	-150.242	26.3314	8.73136	-132.844	33.7537	-5.20057	-113.763	37.9768	-14.475	-149.954	13.1052	31.1244	-132.458	10.7641	18.2036	-121.214	4.26896	7.683	-188.137	13.2728	29.025	-206.595	3.65837	47.7585	-209.741	22.2517	26.5194	
35	0.291667	-219.96	49.8879	42.1277	-209.665	78.527	31.0556	-195.874	92.1105	23.9542	-177.097	105.183	18.6638	-174.921	69.5342	-5.29516	-164.071	95.0101	9.46647	-170.246	93.1797	34.1167	-150.279	50.8648	-6.42195	-136.245	67.1902	-17.5367	-119.324	82.5395	-26.7505	-142.524	34.9165	7.01449	-126.203	43.8396	-8.55429	-112.884	51.9407	-18.2773	-136.142	21.9527	25.6373	-121.931	22.802	15.2524	-110.472	18.3931	8.69999	-173.762	15.4257	28.6153	-190.391	3.62896	47.5438	-200.952	22.5018	29.6606	
36	0.3	-218.604	45.8455	39.7433	-210.413	73.287	27.8827	-198.904	88.7089	19.2577	-183.395	107.635	10.282	-173.015	65.7483	-6.68263	-163.362	89.3463	2.1705	-170.747	89.6292	31.2789	-154.149	48.9418	-9.85006	-141.458	64.2144	-22.6649	-121.398	79.4353	-30.5269	-143.508	34.6122	4.56012	-129.743	42.8419	-10.4332	-113.1	53.8008	-28.0368	-134.654	25.4369	21.1142	-121.708	26.3545	10.8738	-105.823	20.0794	2.32004	-169.796	13.7965	31.7354	-185.175	3.27306	46.4128	-197.269	19.4642	28.6043	
37	0.308333	-216.611	44.0756	37.6761	-211.427	71.3757	24.0342	-201.362	86.3594	15.9609	-186.444	104.04	5.53387	-173.594	66.0075	-10.5129	-166.595	88.754	1.20098	-177.253	87.7219	28.3415	-155.808	45.3077	-10.2929	-141.512	61.1328	-25.1613	-124.361	76.6174	-34.5263	-144.067	31.7425	2.21894	-130.96	41.659	-18.2695	-112.991	48.4789	-31.3904	-138.736	22.1805	24.1029	-122.861	22.3958	12.0095	-113.466	18.6117	-1.21752	-175.435	13.8527	30.6117	-183.357	0.854939	48.799	-200.826	19.0152	25.0274	
38	0.316667	-214.824	42.7114	37.7201	-212.791	72.7046	25.0244	-200.078	87.9934	12.2431	-183.079	98.7893	6.27425	-176.537	60.3798	-11.3785	-167.937	87.7851	-1.33848	-172.893	84.9575	27.3697	-159.815	44.1786	-14.5247	-141.182	58.168	-27.8611	-121.815	74.5463	-39.1076	-146.371	30.2443	-2.60402	-131.483	36.2787	-18.1565	-116.968	43.2164	-31.5451	-137.909	19.9438	19.3213	-123.404	17.2823	10.932	-108.582	10.2989	-3.14204	-172.576	12.1005	31.254	-188.494	2.94111	46.4571	-202.497	17.2952	25.1324	
39	0.325	-212.549	45.3302	37.4793	-206.353	71.1499	26.6875	-191.442	88.9055	10.8536	-170.136	99.8185	2.24984	-169.726	63.6745	-12.3051	-160.08	84.2434	-3.24234	-168.847	83.5757	28.2765	-152.133	41.4376	-15.4361	-136.596	55.7169	-28.6565	-120.049	66.4696	-37.5281	-146.745	27.2586	-2.71054	-128.775	31.9801	-18.3958	-111.931	36.3182	-32.7788	-136.458	14.6343	18.1737	-123.292	12.1728	8.39477	-109.663	5.91104	-4.20746	-176.768	11.0082	27.8265	-188.098	2.82202	47.2524	-204.11	20.1337	26.6752	
40	0.333333	-211.743	57.6917	35.1107	-196.368	78.1104	23.1955	-179.946	90.2474	9.84339	-157.812	97.236	1.76298	-162.974	59.9061	-13.2858	-149.724	79.1653	-1.16351	-154.942	78.08	26.9225	-152.167	36.6584	-15.1397	-135.135	45.7285	-27.7921	-116.694	57.61	-40.9765	-146.841	18.6163	-1.95727	-132.229	20.9823	-18.2168	-115.163	24.5526	-34.7941	-145.138	7.95013	17.9456	-130.208	1.44803	9.49134	-122.484	-6.96346	-5.33538	-177.543	8.93219	26.4543	-196.423	5.74807	46.4561	-205.036	23.352	25.7937	
41	0.341667	-204.298	66.7949	34.1433	-182.432	79.1545	24.9575	-159.944	85.3193	6.37584	-140.013	79.7098	-1.88002	-162.756	51.0688	-14.8917	-138.853	61.6799	-7.83713	-141.267	64.384	21.7189	-156.937	23.5934	-17.2332	-138.509	25.8736	-30.6728	-116.022	23.72	-41.5142	-158.929	5.44069	-2.28613	-144.782	5.30145	-19.8563	-130.207	1.78663	-35.3854	-159.228	-7.82588	17.9999	-149.096	-15.3571	5.90968	-143.661	-29.5263	-6.99201	-192.073	11.3683	26.6394	-209.137	16.3256	45.3849	-211.369	35.5883	26.222	
42	0.35	-195.587	68.8837	29.9893	-172.381	77.9996	15.8736	-154.127	67.1101	-0.355097	-138.355	59.3368	-8.99414	-171.687	41.7491	-21.7946	-142.184	42.1577	-14.5679	-140.795	50.0937	14.8658	-175.293	12.5341	-21.8874	-159.383	4.38143	-36.1094	-138.791	-1.5074	-53.03	-181.934	-2.12263	-4.2528	-170.742	-14.3535	-22.3398	-161.932	-19.8681	-39.3707	-184.818	-13.383	16.8199	-180.387	-24.5703	3.18806	-181.372	-36.8988	-9.23883	-208.389	17.5238	28.9059	-219.25	26.648	48.7027	-216.041	44.2513	26.7725	
43	0.358333	-192.201	72.9034	28.9069	-171.14	67.4514	11.0814	-158.03	59.476	-5.0803	-144.979	42.3875	-21.116	-187.714	33.2448	-25.0222	-160.898	29.8993	-27.8674	-147.353	32.4099	-1.39673	-203.704	13.478	-20.6666	-192.462	2.25527	-44.5379	-180.694	-12.1504	-58.1862	-210.851	1.17861	-9.11765	-209.376	-9.72549	-23.9478	-207.141	-23.6732	-41.9875	-213.98	-7.00704	12.5864	-216.437	-19.8237	3.25227	-222.928	-29.6468	-7.48369	-221.553	27.0423	27.3052	-227.1	36.0968	52.7628	-220.089	56.617	28.7123	
44	0.366667	-187.263	70.2374	33.4457	-166.331	63.3936	8.79055	-160.24	51.4583	-14.7455	-159.408	34.4038	-26.3423	-200.826	44.6056	-25.4998	-180.039	27.9196	-33.2913	-162.243	23.1604	-6.99289	-222.57	31.4518	-21.1673	-222.197	17.3236	-42.1716	-217.367	2.48604	-65.0673	-234.979	16.8215	-7.91462	-239.961	9.6555	-23.2256	-246.146	-1.82222	-42.7915	-233.552	10.1022	17.1779	-247.456	-2.58712	3.69626	-259.707	-7.59218	-10.1013	-227.857	39.6928	32.6626	-225.364	51.2698	53.9299	-218.356	67.4207	29.7233	
45	0.375	-177.796	66.1491	33.1028	-163.827	55.5222	6.97099	-162.48	45.7588	-10.9065	-162.053	34.4763	-28.3145	-201.645	56.2766	-26.1737	-185.119	34.9316	-35.4544	-171.44	22.9391	-12.9594	-228.349	49.8716	-23.9717	-234.098	38.3942	-47.3873	-235.375	30.3637	-68.1014	-239.959	42.491	-7.17004	-250.324	37.8609	-24.0631	-262.943	33.195	-46.256	-247.151	27.7027	13.7702	-260.361	23.4941	4.78812	-273.72	26.2774	-5.32941	-229.801	47.8931	35.4632	-221.583	57.7942	58.6915	-209.315	71.8846	36.8186	
46	0.383333	-170.614	58.5848	33.4185	-156.46	46.7107	10.0183	-158.537	39.9196	-11.2381	-166.852	29.0621	-31.5173	-192.57	63.3352	-24.6759	-185.477	40.2447	-39.3355	-178.955	19.5452	-16.8561	-218.711	65.7993	-24.6544	-224.709	61.8835	-51.0149	-229.703	55.3421	-71.3003	-238.555	54.9957	-6.8072	-244.366	61.1216	-27.7733	-256.22	61.5594	-45.5059	-247.48	43.9638	8.84254	-255.067	46.8913	0.0360895	-269.665	52.8894	-9.97042	-223.665	57.1586	30.8908	-218.433	56.2206	57.9238	-199.131	70.985	37.9578	
47	0.391667	-168.716	45.1035	37.2195	-161.465	33.2728	12.7143	-154.968	28.3252	-12.3818	-160.322	20.5406	-31.7015	-181.035	61.7905	-26.7541	-177.28	41.1164	-40.0834	-177.885	15.9183	-20.7421	-206.162	72.1757	-22.5376	-210.307	74.3896	-49.5482	-209.884	73.7331	-74.9251	-228.012	69.166	-15.3841	-229.149	76.1676	-32.4918	-236.778	84.4099	-51.5832	-239.744	56.462	2.04792	-250.459	64.56	-10.2533	-259.201	77.9949	-19.8455	-220.534	59.0288	29.7607	-216.883	60.6932	51.672	-193.499	68.3202	38.5474	
48	0.4	-174.57	35.5133	39.7927	-166.609	20.4487	15.1384	-159.547	12.9371	-9.526	-169.662	9.64638	-30.3222	-173.682	55.1559	-26.5412	-178.436	32.8206	-43.4254	-187.242	10.5126	-25.1424	-195.729	71.1052	-26.6911	-190.394	73.8214	-53.767	-189.757	73.888	-79.7361	-213.122	72.1328	-17.855	-217.292	83.8238	-39.3793	-211.811	92.5254	-59.7182	-236.569	69.6861	-6.9719	-239.037	80.1702	-20.3483	-241.396	91.2232	-26.236	-217.973	66.3926	24.6444	-216.728	64.7049	45.2415	-193.416	64.9309	36.5156	
49	0.408333	-175.282	30.3471	33.5082	-174.356	13.687	14.4318	-172.265	3.37281	-7.64598	-178.341	-3.75101	-30.0012	-174.139	43.7353	-33.0118	-184.087	20.5489	-44.4591	-196.518	5.29262	-25.2768	-188.385	65.3106	-34.7059	-187.933	64.1849	-58.903	-189.9	64.6157	-86.5596	-208.099	75.576	-25.4408	-205.172	82.2032	-47.146	-204.793	90.1898	-64.3253	-225.626	73.0064	-9.21576	-227.606	84.3764	-25.4971	-231.12	101.964	-33.4002	-209.045	73.3795	15.8688	-208.438	70.3567	41.2342	-185.929	63.9059	29.316	
50	0.416667	-177.982	33.7532	35.6012	-178.971	11.3779	14.207	-181.735	-1.17384	-3.74905	-186.957	-14.2409	-23.2523	-177.163	36.3385	-31.4367	-195.893	14.9796	-44.2246	-205.914	1.43262	-22.048	-191.66	58.2579	-39.9264	-192.956	54.0131	-64.6081	-196.944	50.9611	-87.0507	-206.876	72.1356	-29.7743	-208.782	77.6096	-54.5763	-206.466	81.5076	-75.1285	-226.038	79.4593	-17.224	-229.638	87.8195	-28.7944	-226.644	98.7224	-41.4146	-205.277	76.8525	11.9807	-204.278	81.4684	33.985	-182.318	67.477	22.4037	
